<svg width="40" height="40" viewBox="0 0 40 40" fill="none" xmlns="http://www.w3.org/2000/svg">
<path d="M0.587119 39.4129V0.587119H39.3184V39.4129H0.587119Z" stroke="#29EDFF" stroke-width="1.17424"/>
<path d="M9.6147 7.28449H8.03906V8.41261H9.55039V8.7994H8.03906V10.3143H9.58255V10.7011H7.62103V6.89771H9.58255V7.28449H9.6147Z" fill="#29EDFF"/>
<path d="M15.5956 6.89771V10.3143H16.6568V10.7011H15.1776V6.89771H15.5956Z" fill="#29EDFF"/>
<path d="M23.0558 6.89771C23.2809 6.89771 23.6346 6.92994 23.9241 7.12333C24.0527 7.22003 24.2778 7.44565 24.2778 7.8969C24.2778 8.09029 24.2456 8.41261 23.8919 8.63824C24.4064 8.76717 24.6315 9.21842 24.6315 9.6052C24.6315 9.99199 24.4385 10.2821 24.2456 10.4432C23.9562 10.6689 23.6025 10.7011 23.3452 10.7011H22.4127V6.89771H23.0558ZM22.7986 8.57377H23.1202C23.3452 8.57377 23.8597 8.54154 23.8597 7.92913C23.8597 7.31672 23.2488 7.28449 23.1202 7.28449H22.7986V8.57377ZM22.7986 10.3143H23.2809C23.5382 10.3143 23.7633 10.2821 23.9562 10.1531C24.117 10.0565 24.2135 9.86306 24.2135 9.63743C24.2135 9.34734 24.0527 9.15395 23.8919 9.08949C23.7633 9.02502 23.5382 8.96056 23.2488 8.96056H22.8307V10.3143H22.7986Z" fill="#29EDFF"/>
<path d="M30.3552 6.89771C30.6124 6.89771 30.9983 6.92994 31.2877 7.12333C31.5128 7.28449 31.7057 7.57458 31.7057 7.96136C31.7057 8.54154 31.3199 8.96056 30.741 9.02502L31.963 10.7333H31.4485L30.2909 9.02502H30.1944V10.7011H29.7764V6.89771H30.3552ZM30.1622 8.67047H30.4195C30.934 8.67047 31.2555 8.41261 31.2555 7.96136C31.2555 7.73574 31.1912 7.54235 30.9661 7.41342C30.8054 7.31672 30.6124 7.31672 30.4195 7.31672H30.1622V8.67047Z" fill="#29EDFF"/>
<path d="M7.58885 16.7285C7.58885 17.0509 7.58885 17.4054 7.87825 17.6633C8.03903 17.7922 8.29628 17.8889 8.48921 17.8889C8.68215 17.8889 8.97155 17.7922 9.10018 17.6633C9.38958 17.4054 9.38958 17.0509 9.38958 16.7285V14.4078H9.80761V16.8575C9.80761 17.1798 9.77545 17.4699 9.58252 17.76C9.35742 18.0823 8.97155 18.2757 8.45706 18.2757C7.97472 18.2757 7.58885 18.0823 7.3316 17.76C7.13866 17.4699 7.10651 17.1798 7.10651 16.8575V14.4078H7.52453V16.7285H7.58885Z" fill="#29EDFF"/>
<path d="M16.6568 15.1491C16.5925 15.0524 16.5282 14.9235 16.4317 14.859C16.3674 14.7945 16.2066 14.7301 16.0137 14.7301C15.6278 14.7301 15.3705 14.9557 15.3705 15.3102C15.3705 15.4714 15.4027 15.5359 15.4992 15.6326C15.6278 15.7615 15.7564 15.7937 15.885 15.8582L16.2388 16.0193C16.4638 16.116 16.6568 16.2127 16.8176 16.3739C17.0105 16.5673 17.107 16.7929 17.107 17.0508C17.107 17.7599 16.5925 18.2111 15.9172 18.2111C15.6599 18.2111 15.3384 18.1467 15.0811 17.8888C14.8882 17.6954 14.7917 17.4376 14.7274 17.2119L15.1454 17.083C15.1776 17.2764 15.2741 17.4698 15.3705 17.5665C15.5313 17.7276 15.7243 17.7921 15.9172 17.7921C16.4317 17.7921 16.6889 17.4053 16.6889 17.0508C16.6889 16.8896 16.6246 16.7284 16.496 16.5995C16.3995 16.5028 16.2388 16.4384 16.0458 16.3417L15.6921 16.1805C15.5313 16.116 15.3705 16.0193 15.1776 15.8582C15.0168 15.697 14.9204 15.5359 14.9204 15.2458C14.9204 14.6656 15.3705 14.2788 15.9815 14.2788C16.2066 14.2788 16.3995 14.311 16.5925 14.44C16.7532 14.5367 16.8819 14.6978 16.9783 14.859L16.6568 15.1491Z" fill="#29EDFF"/>
<path d="M24.535 13.9243L24.8565 14.0855L21.9947 19.2104L21.6731 19.0492L24.535 13.9243Z" fill="#29EDFF"/>
<path d="M8.42498 21.8856C8.65007 21.8856 9.00379 21.9179 9.29319 22.1112C9.42181 22.2079 9.64691 22.4336 9.64691 22.8848C9.64691 23.0782 9.61475 23.4005 9.26103 23.6262C9.77553 23.7551 10.0006 24.2063 10.0006 24.5931C10.0006 24.9477 9.80768 25.27 9.61475 25.4311C9.32535 25.6568 8.97163 25.689 8.71438 25.689H7.78186V21.8856H8.42498ZM8.16773 23.5617H8.48929C8.71438 23.5617 9.22888 23.5295 9.22888 22.917C9.22888 22.3046 8.61791 22.2724 8.48929 22.2724H8.16773V23.5617ZM8.16773 25.3022H8.65007C8.90732 25.3022 9.13241 25.27 9.32535 25.1411C9.48613 25.0444 9.58259 24.851 9.58259 24.6253C9.58259 24.3353 9.42181 24.1419 9.26103 24.0774C9.13241 24.0129 8.90732 23.9485 8.61791 23.9485H8.19989V25.3022H8.16773Z" fill="#29EDFF"/>
<path d="M15.0812 25.2055C14.8239 24.851 14.6953 24.3353 14.6953 23.8195C14.6953 23.2716 14.8239 22.7881 15.0812 22.4336C15.3706 22.0146 15.7565 21.8534 16.0459 21.8534C16.3353 21.8534 16.7211 22.0146 17.0105 22.4336C17.2678 22.7881 17.3964 23.3038 17.3964 23.8195C17.3964 24.3675 17.2678 24.851 17.0105 25.2055C16.7211 25.6245 16.3353 25.7857 16.0459 25.7857C15.7565 25.7857 15.3706 25.6245 15.0812 25.2055ZM15.4027 22.627C15.2098 22.9493 15.1133 23.4005 15.1133 23.7873C15.1133 24.1741 15.1777 24.6253 15.4027 24.9477C15.5957 25.27 15.8529 25.3667 16.0459 25.3667C16.2388 25.3667 16.496 25.27 16.689 24.9477C16.8819 24.6253 16.9784 24.1741 16.9784 23.7873C16.9784 23.4005 16.9141 22.9493 16.689 22.627C16.496 22.3046 16.2388 22.2079 16.0459 22.2079C15.8529 22.2079 15.5957 22.3046 15.4027 22.627Z" fill="#29EDFF"/>
<path d="M22.4127 25.2055C22.1555 24.851 22.0269 24.3353 22.0269 23.8195C22.0269 23.2716 22.1555 22.7881 22.4127 22.4336C22.7021 22.0146 23.088 21.8534 23.3774 21.8534C23.6668 21.8534 24.0527 22.0146 24.3421 22.4336C24.5993 22.7881 24.728 23.3038 24.728 23.8195C24.728 24.3675 24.5993 24.851 24.3421 25.2055C24.0527 25.6245 23.6668 25.7857 23.3774 25.7857C23.088 25.7857 22.7021 25.6245 22.4127 25.2055ZM22.7343 22.627C22.5414 22.9493 22.4449 23.4005 22.4449 23.7873C22.4449 24.1741 22.5092 24.6253 22.7343 24.9477C22.9272 25.27 23.1845 25.3667 23.3774 25.3667C23.5703 25.3667 23.8276 25.27 24.0205 24.9477C24.2135 24.6253 24.3099 24.1741 24.3099 23.7873C24.3099 23.4005 24.2456 22.9493 24.0205 22.627C23.8276 22.3046 23.5703 22.2079 23.3774 22.2079C23.1845 22.2079 22.9272 22.3046 22.7343 22.627Z" fill="#29EDFF"/>
<path d="M30.9983 22.3046V25.7212H30.5803V22.3046H29.6478V21.9178H31.9309V22.3046H30.9983Z" fill="#29EDFF"/>
<path d="M10.097 30.2338C9.96837 30.1049 9.80759 29.9759 9.61465 29.8792C9.42172 29.7825 9.19662 29.7181 8.97153 29.7181C8.10332 29.7181 7.4602 30.4272 7.4602 31.2975C7.4602 32.3289 8.29626 32.8446 9.00369 32.8446C9.26094 32.8446 9.51818 32.7801 9.71112 32.6834C9.93621 32.5867 10.097 32.4256 10.1613 32.3611V32.8768C9.74328 33.1669 9.29309 33.2636 9.00369 33.2636C7.87823 33.2636 7.04218 32.3933 7.04218 31.2975C7.04218 30.1693 7.87823 29.3313 9.03585 29.3313C9.26094 29.3313 9.71112 29.3635 10.1613 29.7181V30.2338H10.097Z" fill="#29EDFF"/>
<path d="M16.8497 32.1354H15.2419L14.7917 33.1991H14.3094L16.0458 29.2023L17.7501 33.1991H17.2677L16.8497 32.1354ZM16.6889 31.7164L16.0458 30.2015L15.4027 31.7164H16.6889Z" fill="#29EDFF"/>
<path d="M21.448 33.1991L22.0911 29.17L23.5381 32.3933L25.0173 29.17L25.5961 33.1991H25.1781L24.8244 30.556L23.5381 33.3602L22.2519 30.556L21.866 33.1991H21.448Z" fill="#29EDFF"/>
<path d="M30.6125 29.3958C30.9984 29.3958 31.32 29.428 31.5772 29.6536C31.8666 29.8792 31.9309 30.2338 31.9309 30.4594C31.9309 31.0074 31.6094 31.5231 30.7411 31.5231H30.3553V33.1669H29.9051V29.3958H30.6125ZM30.3553 31.1363H30.709C31.2235 31.1363 31.5129 30.8784 31.5129 30.4594C31.5129 29.847 30.9341 29.7825 30.6768 29.7825H30.3553V31.1363Z" fill="#29EDFF"/>
</svg>
